<?xml version="1.0" standalone="no"?>
<!DOCTYPE svg PUBLIC "-//W3C//DTD SVG 20010904//EN"
 "http://www.w3.org/TR/2001/REC-SVG-20010904/DTD/svg10.dtd">
<svg version="1.0" xmlns="http://www.w3.org/2000/svg"
 width="290.000000pt" height="290.000000pt" viewBox="0 0 290.000000 290.000000"
 preserveAspectRatio="xMidYMid meet">
<metadata>
Created by potrace 1.11, written by Peter Selinger 2001-2013
</metadata>
<g transform="translate(0.000000,290.000000) scale(0.100000,-0.100000)"
fill="#000000" stroke="none">
<path d="M804 2851 c-96 -26 -135 -43 -215 -96 -313 -209 -384 -655 -153 -961
98 -129 238 -213 415 -249 66 -14 111 -16 214 -11 141 7 220 13 305 26 30 4
113 7 185 6 118 -1 135 -3 186 -27 102 -48 173 -130 205 -237 16 -52 21 -167
9 -222 -13 -65 -56 -130 -103 -157 -38 -23 -51 -25 -105 -20 -36 4 -105 23
-164 46 -127 50 -163 59 -249 67 -217 19 -440 -128 -515 -340 -88 -251 48
-529 302 -617 79 -27 211 -36 288 -19 138 30 278 136 338 255 17 33 52 128 78
210 64 204 104 269 193 314 68 34 108 42 235 45 119 3 130 5 191 35 117 57
186 166 187 295 2 130 -71 250 -188 308 l-68 33 -150 -3 c-90 -1 -167 2 -192
9 -61 16 -149 93 -194 168 -52 86 -71 141 -129 361 -26 102 -60 221 -75 265
-116 347 -343 530 -660 533 -69 1 -122 -4 -171 -17z"/>
</g>
</svg>
