<?xml version="1.0" standalone="no"?>
<!DOCTYPE svg PUBLIC "-//W3C//DTD SVG 20010904//EN"
 "http://www.w3.org/TR/2001/REC-SVG-20010904/DTD/svg10.dtd">
<svg version="1.0" xmlns="http://www.w3.org/2000/svg"
 width="1632.000000pt" height="1632.000000pt" viewBox="0 0 1632.000000 1632.000000"
 preserveAspectRatio="xMidYMid meet">
<metadata>
Created by potrace 1.11, written by Peter Selinger 2001-2013
</metadata>
<g transform="translate(0.000000,1632.000000) scale(0.100000,-0.100000)"
fill="#000000" stroke="none">
<path d="M36 12381 c-2 -3 -3 -792 -3 -1753 0 -1587 2 -1748 16 -1749 9 0 311
-1 671 -1 724 0 768 2 945 38 88 18 237 63 249 75 6 5 17 9 25 9 24 0 237 108
315 160 272 180 486 422 623 703 33 67 72 159 78 182 1 6 5 17 8 25 22 59 63
225 72 295 25 185 25 412 1 531 -2 12 -7 38 -10 58 -10 59 -52 221 -62 237 -3
5 -7 17 -9 26 -2 10 -12 39 -24 66 -11 26 -21 51 -22 55 -5 30 -132 251 -151
263 -5 3 -9 10 -8 14 8 25 -246 305 -344 380 -22 17 -45 35 -51 40 -6 6 -18
15 -26 20 -9 6 -40 26 -70 46 -30 20 -70 44 -89 55 -19 10 -36 22 -38 27 -2 4
-8 7 -12 7 -5 0 -48 18 -95 40 -47 22 -90 40 -96 40 -5 0 -17 4 -27 9 -18 10
-130 46 -172 55 -103 23 -181 36 -229 40 -31 3 -56 6 -56 7 0 5 -1406 5 -1409
0z m1344 -605 c14 -3 42 -8 62 -11 20 -2 46 -8 57 -15 12 -6 21 -9 21 -6 0 5
64 -11 95 -23 127 -52 181 -76 183 -83 2 -4 9 -8 15 -8 12 0 124 -66 143 -85
6 -5 30 -26 54 -45 98 -79 201 -208 263 -327 36 -70 91 -213 81 -213 -2 0 0
-9 6 -19 5 -11 12 -36 15 -55 3 -20 8 -53 11 -73 3 -21 7 -73 9 -115 2 -42 6
-82 10 -87 3 -6 3 -11 -2 -11 -4 0 -8 -17 -9 -38 0 -43 -11 -143 -19 -187 -11
-60 -77 -255 -87 -255 -5 0 -7 -4 -3 -9 3 -5 -2 -16 -10 -25 -9 -8 -15 -18
-15 -21 1 -8 -31 -67 -44 -82 -26 -29 -36 -42 -36 -48 0 -24 -164 -178 -255
-239 -70 -48 -199 -116 -230 -123 -5 -1 -34 -11 -64 -22 -29 -11 -69 -23 -88
-26 -20 -3 -39 -7 -43 -10 -14 -9 -113 -24 -200 -31 -53 -4 -554 -8 -597 -5
-10 1 -13 239 -13 1157 l0 1156 333 -5 c182 -2 343 -7 357 -11z"/>
<path d="M7495 12380 c-2 -3 -4 -790 -4 -1748 0 -1253 3 -1744 11 -1748 8 -5
596 -9 640 -5 4 1 7 549 7 1219 0 669 1 1235 1 1256 0 38 3 35 92 -110 51 -82
97 -152 103 -156 5 -4 7 -8 3 -8 -7 0 29 -59 52 -87 5 -7 10 -17 10 -23 0 -5
5 -10 10 -10 6 0 10 -4 10 -9 0 -10 81 -143 132 -218 15 -23 28 -44 28 -48 0
-3 14 -26 30 -50 17 -24 30 -48 30 -54 0 -6 5 -11 10 -11 6 0 10 -7 10 -15 0
-8 4 -15 9 -15 5 0 13 -9 16 -20 3 -11 12 -26 18 -33 7 -7 21 -30 32 -51 11
-22 25 -45 30 -51 14 -15 33 -45 48 -75 6 -14 16 -29 20 -35 4 -5 74 -116 154
-245 177 -285 230 -370 243 -390 11 -16 119 -191 166 -270 15 -25 51 -82 81
-127 29 -46 53 -87 53 -93 0 -5 5 -10 10 -10 6 0 10 -5 10 -10 0 -6 20 -41 45
-79 25 -38 45 -73 45 -78 0 -5 9 -18 20 -28 11 -10 20 -24 20 -30 0 -36 23
-38 398 -37 202 0 374 1 382 1 13 1 15 202 14 1748 -1 962 -2 1751 -3 1754 0
3 -147 5 -326 5 -322 1 -325 0 -326 -20 0 -12 -1 -556 -1 -1209 -1 -931 -4
-1185 -13 -1175 -7 7 -56 85 -111 173 -54 88 -100 162 -103 165 -3 3 -17 26
-31 53 -13 26 -28 47 -32 47 -5 0 -8 4 -8 9 0 5 -25 49 -55 97 -77 123 -73
116 -142 228 -34 56 -67 106 -73 113 -5 7 -10 15 -10 18 0 3 -15 29 -33 58
-71 109 -122 192 -132 209 -5 9 -41 68 -80 130 -38 61 -72 117 -74 122 -2 6
-8 15 -13 21 -5 5 -49 75 -99 155 -49 80 -107 173 -129 208 -23 35 -46 74 -52
88 -6 13 -15 24 -20 24 -4 0 -8 5 -8 10 0 6 -17 37 -38 68 -21 32 -41 64 -45
72 -4 8 -16 29 -27 45 -11 17 -27 43 -36 59 -9 16 -20 34 -26 40 -5 6 -33 52
-63 101 l-55 90 -410 1 c-226 0 -413 -2 -415 -6z"/>
<path d="M6229 12286 c0 -1 -1 -111 -2 -246 l-2 -245 -27 -45 c-33 -57 -79
-91 -140 -106 -5 -1 -11 -2 -15 -4 -5 -1 -47 -2 -95 -2 l-88 0 -1 -51 c-1 -90
0 -262 2 -267 1 -3 0 -9 -1 -15 -7 -32 -6 -56 1 -61 5 -3 6 -13 1 -22 -9 -20
-9 -43 0 -57 4 -6 3 -17 -1 -24 -4 -7 -6 -23 -4 -35 5 -23 5 -23 180 -22 96 1
178 -1 182 -4 4 -3 8 -336 8 -740 1 -702 3 -813 17 -870 3 -14 8 -41 11 -60
12 -70 13 -75 15 -77 2 -2 3 -6 5 -10 12 -45 68 -175 80 -187 7 -6 19 -25 28
-41 16 -32 118 -132 156 -153 13 -8 38 -22 55 -31 33 -19 115 -48 156 -55 14
-3 25 -5 25 -6 0 -8 215 -14 245 -7 8 2 33 7 55 12 22 4 52 14 68 22 15 7 27
10 27 6 0 -5 4 -3 8 2 4 6 24 19 45 30 21 11 43 26 49 33 15 17 17 471 3 480
-5 4 -48 8 -95 9 -47 0 -85 2 -85 3 0 1 -19 3 -42 5 -23 2 -60 13 -81 24 -45
23 -102 86 -102 113 0 10 -5 18 -11 18 -5 0 -8 4 -5 8 3 5 0 26 -6 48 -15 51
-18 1424 -3 1425 6 0 107 1 224 2 l215 2 0 273 c1 265 0 273 -19 277 -11 2
-111 3 -222 2 -130 -1 -203 2 -204 8 -1 6 -2 152 -3 325 l-1 315 -302 1 c-167
1 -303 1 -304 0z"/>
<path d="M13630 12056 c0 -131 -5 -247 -11 -269 -5 -21 -29 -57 -52 -81 -51
-54 -99 -68 -217 -68 l-86 0 1 -276 0 -277 180 -1 180 0 2 -65 c2 -35 4 -390
6 -789 2 -399 7 -738 11 -755 4 -16 14 -57 22 -90 8 -33 17 -71 20 -85 7 -32
80 -185 102 -212 46 -58 145 -146 184 -163 24 -11 45 -22 48 -25 5 -6 112 -42
135 -46 194 -31 324 -16 455 52 83 43 77 21 77 290 l1 241 -54 -1 c-30 -1 -54
2 -54 7 0 4 -5 5 -11 2 -16 -11 -59 -13 -65 -4 -2 4 -11 6 -19 3 -26 -10 -122
25 -157 58 -30 28 -56 71 -46 74 2 0 -2 7 -8 15 -14 17 -21 47 -30 124 -3 33
-8 62 -9 65 -2 3 0 12 5 19 4 8 4 26 0 42 -5 15 -6 30 -3 33 8 7 7 105 -1 113
-3 3 -1 13 4 22 5 10 5 23 0 31 -4 7 -4 24 0 36 6 14 5 26 0 29 -5 3 -5 18 -1
33 4 15 5 38 1 52 -3 14 -3 42 0 62 4 20 4 42 -1 49 -4 7 -4 20 1 29 5 9 5 22
0 30 -4 7 -4 24 0 36 6 14 5 26 0 29 -5 3 -5 18 -1 33 4 15 5 38 1 52 -3 14
-3 42 0 62 4 20 4 42 -1 49 -4 7 -4 20 1 29 5 9 5 22 0 30 -4 7 -4 24 0 36 6
14 5 26 0 29 -5 3 -5 18 -1 33 4 15 5 38 1 52 -3 14 -3 42 0 62 4 20 4 42 -1
49 -4 7 -4 20 1 30 5 9 7 19 4 22 -10 10 -9 87 1 88 6 0 107 1 226 1 l216 1 0
277 0 277 -196 1 c-108 0 -208 1 -223 1 -25 1 -27 4 -26 50 0 28 -3 55 -7 60
-3 6 -2 11 4 11 5 0 6 11 2 27 -4 16 -4 44 -1 65 4 20 4 42 -1 49 -4 7 -4 20
1 29 5 9 5 22 0 30 -4 7 -4 24 0 36 6 14 5 26 0 29 -5 3 -5 18 -1 33 4 15 5
38 1 52 -3 13 -3 46 0 72 4 27 4 48 0 48 -3 0 -6 12 -5 28 l0 27 -302 1 -303
1 0 -231z"/>
<path d="M4380 11574 c-36 -8 -79 -16 -96 -18 -92 -14 -335 -114 -454 -188
-189 -117 -388 -329 -478 -508 -9 -19 -20 -36 -24 -38 -5 -2 -8 -9 -8 -15 -1
-7 -9 -30 -20 -52 -11 -22 -19 -47 -20 -56 0 -9 -3 -19 -7 -23 -5 -4 -8 -11
-9 -14 0 -4 -4 -14 -7 -22 -4 -8 -8 -27 -11 -42 -3 -15 -7 -31 -9 -36 -3 -4
-8 -26 -11 -48 -4 -23 -10 -54 -15 -70 -4 -16 -7 -42 -6 -57 1 -15 -1 -29 -4
-32 -11 -6 -5 -255 8 -337 24 -155 108 -393 172 -493 11 -16 22 -38 25 -47 4
-10 10 -18 15 -18 5 0 9 -5 9 -11 0 -7 16 -31 35 -55 19 -23 35 -45 35 -49 0
-3 10 -16 23 -29 12 -12 38 -40 57 -62 19 -22 71 -70 115 -107 104 -88 102
-87 107 -81 3 2 13 -5 23 -16 10 -11 24 -20 31 -20 7 0 14 -3 16 -7 7 -17 196
-101 278 -123 25 -7 56 -16 70 -21 14 -4 44 -11 68 -14 23 -4 54 -9 70 -11 21
-3 202 -13 277 -15 6 0 33 2 60 6 28 3 64 8 80 10 60 7 111 16 141 26 17 5 40
11 50 13 42 9 149 50 156 60 4 6 8 7 8 3 0 -21 214 108 307 185 44 37 162 159
191 197 15 20 35 45 45 55 9 11 17 25 17 32 0 7 4 14 8 16 24 9 126 214 162
323 12 39 25 77 28 85 3 8 6 20 8 27 1 6 7 35 14 65 32 147 35 387 6 508 -4
14 -8 37 -11 52 -18 99 -140 396 -167 406 -4 2 -8 8 -8 13 0 11 -77 129 -94
144 -6 6 -23 26 -37 45 -41 53 -184 194 -192 188 -2 -2 -11 5 -21 15 -72 72
-316 196 -438 223 -13 3 -27 6 -33 7 -5 2 -16 6 -22 10 -7 5 -17 5 -23 2 -5
-3 -10 -2 -10 2 0 5 -15 9 -32 9 -18 1 -46 5 -63 9 -55 13 -317 12 -385 -1z
m330 -558 c184 -32 387 -159 479 -301 14 -22 28 -42 32 -45 15 -13 70 -131 92
-200 45 -139 52 -254 25 -425 -2 -11 -7 -26 -12 -33 -4 -7 -5 -16 -2 -19 3 -3
1 -14 -5 -25 -6 -11 -12 -27 -14 -37 -5 -28 -77 -169 -96 -190 -11 -11 -19
-24 -19 -28 0 -12 -96 -111 -150 -154 -52 -42 -174 -107 -235 -125 -78 -23
-156 -31 -260 -29 -134 3 -130 3 -238 39 -76 26 -90 32 -172 85 -51 32 -173
154 -207 206 -50 77 -104 189 -113 235 -2 8 -8 34 -14 56 -28 105 -28 260 1
369 5 22 12 51 15 64 2 13 11 37 19 52 8 16 15 32 16 36 5 28 12 43 19 43 5 0
9 9 9 19 0 11 5 23 11 26 5 4 14 17 19 28 31 79 189 225 299 278 36 18 74 36
85 41 73 36 297 54 416 34z"/>
<path d="M11879 11586 c-2 -2 -26 -7 -54 -10 -274 -30 -530 -154 -735 -356
-47 -47 -97 -101 -110 -120 -13 -19 -27 -37 -30 -40 -11 -10 -78 -116 -106
-170 -56 -105 -115 -270 -130 -360 -5 -26 -14 -74 -20 -99 -3 -13 -7 -69 -10
-125 -3 -55 -6 -105 -6 -111 -2 -26 14 -194 22 -230 5 -22 11 -56 14 -75 3
-19 15 -66 27 -105 13 -38 23 -72 24 -75 25 -81 142 -295 208 -377 48 -59 213
-218 259 -248 8 -5 33 -22 54 -36 21 -14 41 -26 44 -25 3 0 19 -9 35 -20 27
-20 100 -56 117 -58 3 -1 10 -4 14 -8 4 -5 16 -8 26 -8 10 0 18 -5 18 -12 0
-6 3 -8 7 -5 3 4 12 2 20 -4 7 -6 13 -9 13 -6 0 3 21 -1 48 -9 120 -37 183
-45 367 -47 147 -1 221 2 239 11 5 3 23 7 40 8 215 24 545 203 704 383 13 14
38 42 55 61 18 19 49 58 69 85 21 28 41 55 46 60 22 28 104 176 100 180 -2 2
-15 6 -28 8 -14 3 -43 10 -65 15 -22 6 -53 13 -70 16 -16 2 -73 14 -125 26
-52 11 -106 23 -120 25 -14 2 -53 10 -87 18 l-62 15 -27 -42 c-96 -145 -262
-260 -444 -307 -109 -29 -310 -31 -419 -5 -142 34 -260 104 -369 220 -50 53
-135 174 -138 195 0 3 -10 26 -21 51 -20 45 -36 101 -37 130 -1 13 122 15
1048 15 1041 0 1049 0 1053 20 6 32 5 225 -1 290 -13 129 -36 241 -72 354 -15
47 -21 62 -45 116 -7 17 -13 32 -14 35 -1 7 -57 111 -72 135 -7 11 -15 27 -19
35 -4 8 -10 17 -13 20 -3 3 -20 25 -36 50 -47 70 -212 231 -295 287 -87 58
-229 133 -253 133 -9 0 -17 5 -17 12 0 6 -3 9 -6 5 -4 -3 -23 1 -43 9 -20 8
-56 20 -81 25 -25 6 -54 13 -65 16 -11 2 -36 6 -55 9 -19 3 -44 7 -55 10 -25
7 -310 16 -316 10z m351 -545 c41 -12 81 -23 88 -25 7 -1 18 -8 24 -14 7 -7
17 -12 23 -12 23 0 131 -77 185 -132 83 -84 172 -244 186 -334 l5 -32 -735 0
c-405 0 -738 4 -741 8 -4 7 22 93 42 140 3 8 7 21 9 29 1 8 6 17 11 20 5 3 14
17 21 31 25 53 68 106 134 168 39 36 102 82 113 82 4 0 19 9 35 20 15 11 36
21 46 23 11 1 24 5 29 8 6 4 22 9 37 13 16 3 29 7 30 7 124 34 340 33 458 0z"/>
<path d="M1177 8414 c-1 -2 -27 -5 -57 -9 -54 -6 -76 -9 -135 -19 -54 -10 -69
-14 -155 -41 -116 -37 -292 -123 -347 -170 -6 -5 -31 -26 -55 -45 -99 -80
-242 -253 -262 -317 -4 -13 -12 -23 -17 -23 -5 0 -8 -3 -7 -7 0 -5 -10 -33
-25 -64 -67 -147 -95 -299 -91 -499 1 -80 5 -156 8 -170 3 -14 8 -37 12 -52 3
-16 11 -28 17 -29 7 0 182 -1 390 -3 l378 -3 -6 26 c-20 77 -26 230 -12 306
16 92 74 209 129 262 38 36 128 90 161 98 12 2 39 9 60 14 22 5 74 9 116 9 70
0 101 -4 181 -22 50 -11 116 -52 167 -103 79 -79 112 -167 113 -293 0 -174
-88 -322 -260 -438 -30 -20 -61 -43 -68 -49 -7 -7 -20 -13 -28 -13 -8 0 -14
-4 -14 -10 0 -5 -4 -10 -9 -10 -5 0 -39 -18 -75 -40 -36 -22 -70 -40 -76 -40
-5 0 -10 -4 -10 -9 0 -5 -8 -11 -17 -14 -21 -7 -106 -56 -113 -66 -3 -3 -23
-15 -45 -26 -22 -11 -63 -34 -92 -52 -29 -18 -57 -33 -63 -33 -5 0 -10 -4 -10
-10 0 -5 -5 -10 -10 -10 -13 0 -142 -80 -152 -95 -5 -6 -8 -6 -8 0 0 6 -3 6
-8 0 -4 -6 -23 -22 -42 -35 -19 -13 -40 -29 -47 -35 -7 -5 -26 -21 -44 -35
-100 -79 -319 -331 -319 -368 0 -6 -4 -12 -8 -14 -20 -8 -136 -278 -149 -348
-3 -14 -7 -32 -10 -40 -3 -8 -7 -25 -9 -37 -1 -13 -5 -32 -9 -42 -9 -30 -15
-61 -20 -117 -3 -28 -8 -62 -10 -75 -3 -13 -8 -84 -11 -156 l-6 -133 29 -1
c15 0 601 -1 1300 -2 l1273 -2 1 45 c0 57 0 632 0 646 -1 7 -240 10 -776 10
-427 -1 -783 1 -791 4 -24 9 37 88 129 167 15 12 102 67 194 123 92 55 175
105 183 110 8 6 22 13 30 17 8 4 17 9 20 12 3 3 25 17 50 30 25 13 52 30 60
37 8 7 38 24 65 39 28 14 73 40 101 58 133 84 190 122 206 136 9 9 31 27 50
41 56 42 173 161 225 231 55 72 136 213 140 243 2 11 7 24 12 30 9 11 51 154
56 191 2 11 6 38 10 60 9 48 10 233 1 295 -29 221 -109 398 -261 581 -52 62
-246 219 -271 219 -2 0 -22 11 -44 25 -22 14 -40 22 -40 18 0 -5 -4 -3 -8 3
-16 24 -236 97 -332 110 -8 1 -28 5 -45 8 -64 13 -125 18 -253 20 -73 1 -134
1 -135 0z"/>
<path d="M4297 8414 c-1 -1 -36 -5 -77 -8 -41 -3 -106 -13 -145 -22 -38 -8
-80 -17 -92 -20 -12 -2 -35 -9 -50 -15 -16 -6 -35 -12 -43 -14 -26 -5 -104
-38 -125 -52 -11 -7 -27 -13 -36 -13 -10 0 -19 -4 -21 -8 -1 -4 -30 -23 -63
-41 -33 -19 -62 -37 -65 -40 -3 -4 -21 -18 -40 -31 -92 -63 -205 -183 -292
-310 -39 -57 -128 -212 -128 -225 0 -3 -10 -26 -21 -52 -12 -27 -22 -52 -23
-58 -1 -5 -8 -20 -14 -32 -7 -13 -10 -23 -7 -23 2 0 -2 -17 -10 -37 -15 -40
-34 -112 -41 -153 -3 -14 -7 -32 -10 -40 -3 -8 -8 -33 -10 -55 -3 -22 -9 -56
-13 -75 -4 -19 -7 -45 -6 -57 1 -13 -1 -23 -4 -23 -10 0 -16 -144 -16 -400 1
-293 8 -386 47 -570 10 -52 22 -106 24 -120 18 -88 138 -390 156 -390 4 0 8
-6 8 -13 0 -16 78 -140 91 -145 5 -2 9 -8 9 -13 0 -12 8 -22 90 -111 88 -95
266 -238 297 -238 6 0 13 -3 15 -7 6 -14 190 -97 243 -109 26 -7 37 -10 55
-17 20 -7 68 -18 105 -23 17 -3 41 -7 55 -10 106 -23 415 -23 526 0 12 2 39 7
59 10 68 11 185 47 280 87 17 6 36 13 44 15 8 1 17 6 20 11 3 4 20 15 36 23
43 21 179 111 183 121 2 5 10 9 18 9 9 0 12 5 9 10 -3 6 -2 10 3 10 13 0 149
135 182 180 14 18 35 46 48 61 12 15 22 29 22 32 0 3 18 34 39 70 51 84 105
201 139 302 19 57 50 168 58 210 2 11 9 45 15 75 6 30 13 73 15 95 1 22 3 40
4 40 4 0 10 51 17 145 12 183 5 582 -12 672 -3 12 -8 43 -11 68 -3 25 -8 56
-11 70 -3 14 -7 39 -10 55 -2 17 -7 37 -10 45 -4 8 -8 27 -9 41 -5 39 -82 256
-117 329 -163 340 -406 570 -733 694 -39 14 -79 29 -90 31 -10 3 -46 11 -79
19 -115 28 -199 37 -353 40 -67 1 -123 1 -125 0z m248 -748 c66 -18 155 -57
155 -68 0 -4 6 -8 14 -8 8 0 43 -31 78 -69 83 -90 133 -189 185 -366 59 -203
73 -668 28 -925 -3 -19 -8 -48 -11 -65 -10 -60 -45 -179 -73 -244 -45 -105
-141 -241 -170 -241 -6 0 -11 -4 -11 -10 0 -15 -98 -68 -157 -86 -109 -32
-249 -33 -353 -3 -46 14 -119 47 -136 62 -7 7 -31 25 -52 42 -21 16 -52 48
-69 70 -33 44 -106 175 -97 175 3 0 2 6 -3 13 -4 6 -8 14 -9 17 0 3 -3 12 -7
20 -28 69 -61 238 -73 375 -15 162 -8 546 12 637 3 13 6 34 9 48 7 50 16 95
21 112 3 9 6 25 8 35 21 103 131 314 172 330 8 3 14 10 14 17 1 21 145 111
191 119 13 2 31 7 39 10 8 3 24 8 35 10 27 6 235 0 260 -7z"/>
<path d="M9608 8415 c-2 -2 -32 -5 -68 -8 -36 -4 -76 -8 -90 -11 -14 -3 -43
-8 -65 -11 -50 -8 -48 -8 -120 -29 -33 -10 -64 -19 -70 -21 -5 -1 -23 -7 -38
-13 -16 -7 -30 -12 -32 -12 -7 0 -147 -69 -170 -83 -154 -96 -248 -176 -331
-282 -21 -27 -42 -51 -46 -53 -5 -2 -8 -8 -8 -13 0 -5 -15 -32 -33 -61 -62
-97 -121 -254 -143 -378 -26 -150 -26 -376 1 -470 2 -8 7 -28 9 -45 13 -77
109 -315 127 -315 4 0 10 -11 13 -25 4 -14 11 -25 16 -25 6 0 10 -5 10 -11 0
-17 75 -105 150 -177 105 -102 244 -187 392 -242 56 -20 212 -61 225 -59 4 1
10 0 13 -1 3 -1 21 -3 40 -4 20 -1 40 -4 45 -7 25 -12 314 3 338 18 4 3 18 6
30 7 42 5 89 18 115 32 15 8 32 14 38 14 5 0 34 12 64 28 111 57 124 66 213
155 62 61 71 67 63 40 -3 -10 -8 -38 -11 -63 -7 -52 -31 -138 -52 -189 -9 -20
-15 -37 -14 -39 2 -3 -41 -84 -49 -92 -3 -3 -17 -23 -31 -46 -32 -48 -143
-164 -158 -164 -6 0 -11 -3 -11 -7 0 -15 -155 -105 -164 -96 -3 4 -6 1 -6 -5
0 -7 -5 -12 -11 -12 -6 0 -25 -6 -42 -14 -26 -12 -69 -25 -97 -30 -3 -1 -9 -4
-15 -8 -48 -30 -423 -55 -545 -35 -73 12 -104 17 -122 23 -10 3 -30 7 -45 10
-16 3 -37 8 -48 11 -11 4 -23 8 -27 9 -5 1 -10 3 -13 4 -3 1 -8 3 -12 4 -20 4
-140 50 -150 59 -15 11 -16 9 -42 -93 -11 -41 -31 -117 -45 -168 -14 -52 -24
-97 -21 -102 3 -5 2 -10 -3 -12 -7 -3 -67 -213 -78 -273 -3 -16 8 -26 54 -47
105 -49 270 -102 357 -113 17 -3 46 -7 65 -11 78 -14 144 -18 335 -18 199 -1
255 3 410 29 22 4 47 8 55 10 8 1 33 7 55 13 22 6 49 13 60 15 11 2 27 6 35 9
8 3 44 15 80 27 36 13 70 24 75 25 6 1 51 22 100 46 50 24 92 44 95 44 8 2
175 112 200 132 290 239 484 563 576 967 10 43 13 57 18 88 3 19 7 43 10 54 2
11 7 47 10 80 4 33 9 71 11 85 23 114 16 547 -10 675 -3 11 -7 38 -10 60 -3
22 -7 47 -10 55 -2 8 -6 27 -9 41 -7 41 -45 180 -61 219 -18 48 -28 74 -29 80
-1 3 -21 46 -45 95 -40 82 -116 203 -166 264 -90 109 -258 250 -360 301 -28
14 -53 30 -57 35 -4 6 -8 6 -8 1 0 -5 -6 -3 -13 3 -29 23 -217 86 -292 97 -16
2 -40 6 -52 8 -64 13 -122 18 -232 20 -66 2 -122 2 -123 1z m182 -709 c55 -10
73 -16 134 -46 89 -44 165 -119 209 -206 41 -81 52 -131 50 -229 -2 -104 -6
-121 -51 -215 -27 -56 -127 -170 -149 -170 -7 0 -13 -3 -13 -8 0 -11 -88 -49
-156 -67 -57 -15 -197 -22 -239 -11 -11 3 -36 9 -55 14 -128 33 -253 135 -307
252 -17 36 -31 72 -31 80 -1 8 -5 33 -10 55 -12 57 -7 143 12 220 10 38 48
115 70 143 51 63 139 136 150 125 3 -3 6 -2 6 4 0 13 98 50 160 62 44 8 171 6
220 -3z"/>
<path d="M7092 8330 c3 -18 -16 -90 -23 -90 -5 0 -8 -3 -7 -7 5 -13 -33 -103
-43 -103 -5 0 -9 -5 -9 -11 0 -17 -54 -90 -107 -144 -51 -52 -197 -158 -205
-149 -3 2 -11 -2 -18 -11 -7 -8 -21 -15 -31 -15 -11 0 -19 -4 -19 -8 0 -9
-182 -68 -237 -77 -18 -3 -45 -7 -60 -10 -24 -5 -93 -11 -154 -14 -14 -1 -16
-30 -16 -268 0 -148 2 -272 6 -278 4 -6 150 -10 406 -10 l400 0 5 -1114 5
-1113 378 0 c207 1 393 1 412 1 l35 1 -2 1713 -3 1712 -357 0 c-196 1 -356 -2
-356 -5z"/>
</g>
</svg>
