<svg xmlns="http://www.w3.org/2000/svg" viewBox="0 0 190 27">
  <g fill="none" fill-rule="evenodd">
    <path fill="#16212D" d="M9.17983043,0.116123596 L-0.000115217391,0.116123596 L-0.000115217391,25.6972022 L9.17983043,25.6972022 C16.1836076,25.6972022 21.8609446,19.9707753 21.8609446,12.9066629 C21.8609446,5.8428427 16.1836076,0.116123596 9.17983043,0.116123596 L9.17983043,0.116123596 Z M8.25463478,21.3274494 L4.74856957,21.3274494 L4.74856957,4.46396629 L8.25463478,4.46396629 C12.8716837,4.46396629 17.1125478,7.52291011 17.1125478,12.8955618 C17.1125478,18.4525506 12.8716837,21.3274494 8.25463478,21.3274494 L8.25463478,21.3274494 Z M86.5197924,5.92931461 C81.0089446,5.92931461 76.9950587,10.4489326 76.9950587,16.0044607 C76.9950587,21.5036067 81.0394772,25.9773596 86.5880587,25.9773596 C92.1207978,25.9773596 94.7569717,21.898573 95.613325,20.1659213 L91.5421185,19.2924382 C90.5417435,21.012236 88.7005696,22.0329551 86.5779772,22.0329551 L86.5120152,22.0329551 C82.5303902,22.0329551 81.0077924,18.3894494 81.0077924,17.407 L96.2147598,17.4090449 C96.739575,10.8839213 92.6545424,5.92931461 86.5197924,5.92931461 L86.5197924,5.92931461 Z M81.2025098,13.9349775 C81.2025098,13.9349775 81.807113,9.71596629 86.5589663,9.71596629 C91.2684772,9.71596629 91.9396185,13.9349775 91.9396185,13.9349775 L81.2025098,13.9349775 Z M70.8335207,0.116123596 L75.5822054,0.116123596 L75.5822054,25.6972022 L70.0068359,25.6972022 L58.6890315,7.33273034 L58.6890315,25.6972022 L53.9403467,25.6972022 L53.9403467,0.116123596 L59.9195533,0.116123596 L70.8335207,17.8206629 L70.8335207,0.116123596 Z M32.7910424,5.93135955 C28.4378413,5.93135955 22.8607435,9.42237079 22.8607435,15.9545056 C22.8607435,20.3596067 26.163162,25.9773596 32.7910424,25.9773596 C39.4174826,25.9773596 42.7201891,20.3596067 42.7201891,15.9545056 C42.7201891,11.5666404 39.1939609,5.93135955 32.7910424,5.93135955 L32.7910424,5.93135955 Z M32.7904663,21.8959438 C29.1461402,21.8959438 27.0915261,18.7782809 27.0915261,15.9580112 C27.0915261,13.1377416 29.1461402,10.0200787 32.7904663,10.0200787 C36.4347924,10.0200787 38.4896946,13.1377416 38.4896946,15.9580112 C38.4896946,18.7782809 36.4347924,21.8959438 32.7904663,21.8959438 L32.7904663,21.8959438 Z M49.198575,5.57407865 L52.4330152,5.57407865 L52.4330152,9.6204382 L49.198575,9.6204382 L49.198575,19.0178315 C49.198575,21.3020337 50.1543033,21.6184157 51.4686457,21.6184157 L52.4330152,21.6184157 L52.4330152,25.1471124 C52.4330152,25.1471124 51.4191022,25.997809 49.9552652,25.997809 C48.2235478,25.997809 44.7969826,25.4643708 44.792662,19.617 L44.792662,9.6204382 L42.1374772,9.6204382 L42.1374772,5.57407865 L43.2392435,5.57407865 C44.097037,5.57407865 44.792662,4.87207865 44.792662,4.00589888 L44.792662,0.840033708 L49.198575,0.840033708 L49.198575,5.57407865 Z M102.747586,5.57407865 L105.982314,5.57407865 L105.982314,9.6204382 L102.747586,9.6204382 L102.747586,19.0178315 C102.747586,21.3020337 103.703602,21.6184157 105.018233,21.6184157 L105.982314,21.6184157 L105.982314,25.1471124 C105.982314,25.1471124 104.968401,25.997809 103.504564,25.997809 C101.772847,25.997809 98.3465696,25.4643708 98.3419609,19.617 L98.3419609,9.6204382 L95.6867761,9.6204382 L95.6867761,5.57407865 L96.7882543,5.57407865 C97.6463359,5.57407865 98.3419609,4.87207865 98.3419609,4.00589888 L98.3419609,0.840033708 L102.747586,0.840033708 L102.747586,5.57407865 Z"/>
    <path fill="#FF3654" d="M110.385257,10.7291506 C110.269534,10.4160115 110.153812,9.39801391 110.153812,8.61457529 C110.153812,4.07258101 113.506565,0 119.518899,0 C125.261118,0 128.806935,3.79843658 128.806935,8.34043085 C128.806935,11.6295732 127.072843,14.3314321 123.873902,16.2501477 L119.133642,19.1085761 C118.401218,19.5785802 117.784807,20.087579 117.43793,20.8314321 L129,20.8314321 L129,26 L110,26 C110,21.3407263 111.310164,17.503295 115.896321,14.8014362 L119.981498,12.3734264 C121.947327,11.1991547 122.71784,10.141867 122.71784,8.45830114 C122.71784,6.85242921 121.600159,5.44300777 119.365087,5.44300777 C117.014002,5.44300777 115.85765,7.08757897 115.85765,9.20215425 C115.85765,9.71115302 115.934992,10.2591465 116.088804,10.7681453 L110.385257,10.7291506 Z M137.961982,19.1738868 C138.639091,20.5894582 139.729672,21.5335681 141.535388,21.5335681 C143.378564,21.5335681 144.431685,20.5894582 145.109077,19.1738868 C145.823645,17.6793923 146.049253,15.673678 146.049253,13.6287989 C146.049253,11.5836231 145.823645,9.57790879 145.109077,8.08371099 C144.431685,6.66754615 143.378564,5.72373297 141.535388,5.72373297 C139.729672,5.72373297 138.639091,6.66754615 137.961982,8.08371099 C137.284874,9.57790879 137.059266,11.5836231 137.059266,13.6287989 C137.059266,15.673678 137.284874,17.6793923 137.961982,19.1738868 Z M133.260253,4.62266703 C134.87782,2.06656813 137.585685,0.257271429 141.535388,0.257271429 C145.52255,0.257271429 148.230982,2.06656813 149.848266,4.62266703 C151.541036,7.29685385 151.992253,10.4825571 151.992253,13.6287989 C151.992253,16.7750407 151.541036,19.9601505 149.848266,22.6346341 C148.230982,25.1512714 145.52255,27.0000297 141.535388,27.0000297 C137.585685,27.0000297 134.87782,25.1512714 133.260253,22.6346341 C131.567482,19.9601505 131.116266,16.7750407 131.116266,13.6287989 C131.116266,10.4825571 131.567482,7.29685385 133.260253,4.62266703 Z M159.961262,26 L159.961262,9.74388245 L154,9.74388245 L154,5.6993246 C157.730722,5.66096277 160.384621,3.54234333 160.80769,1 L166,1 L166,26 L159.961262,26 Z M180.077445,6.05463273 C178.056168,6.05463273 176.512623,7.50974989 176.512623,9.5773047 C176.512623,11.6448595 178.056168,13.0999767 180.077445,13.0999767 C182.098444,13.0999767 183.64199,11.6067266 183.64199,9.5773047 C183.64199,7.50974989 182.098444,6.05463273 180.077445,6.05463273 Z M172.9844,20.8348907 C173.756034,21.2563749 175.483408,21.8303908 177.173905,21.8303908 C180.812203,21.8303908 184.046522,20.1071877 184.414179,15.7039922 C183.421563,17.235664 181.363687,18.1161876 179.232058,18.1161876 C174.638298,18.1161876 171,14.746625 171,9.7688359 C171,4.71449206 174.748373,1 180.334472,1 C185.773619,1 190,5.02071088 190,12.9471561 C190,21.7538361 185.479716,27 177.284257,27 C175.152628,27 172.9844,26.4638282 171.734758,25.6979922 L172.9844,20.8348907 Z"/>
  </g>
</svg>