<svg height="384" viewBox="0 0 624 384" width="624" xmlns="http://www.w3.org/2000/svg" xmlns:xlink="http://www.w3.org/1999/xlink"><defs><path id="a" d="m262.057095 85.9475532h15.354818c4.318543 0 7.006668-2.3039926 7.006668-6.6239787v-4.2239864c0-4.3199862-2.688125-6.6239788-7.006668-6.6239788h-15.354818zm-14.587078 36.8649138v-67.0098493h31.670345c12.475791 0 20.345135 8.735972 20.345135 21.4089636 0 12.6719593-7.869344 21.4079313-20.345135 21.4079313h-17.083267v24.1929544zm89.489802-8.448076h-.479838c-1.727417 5.087984-5.854024 9.599969-14.108271 9.599969-10.268535 0-15.738689-7.199977-15.738689-19.871936v-31.6809305h14.203207v30.4329345c0 6.14398 2.016352 9.599969 7.198603 9.599969 4.41451 0 8.924988-2.495992 8.924988-7.295976v-32.7369275h14.203208v50.4008705h-14.203208zm22.291317-16.8003589c0-16.1289805 8.349183-26.3049479 23.513098-26.3049479 10.172567 0 17.178203 4.8959843 20.1532 13.1529901l-11.516114 4.991984c-.863709-3.8399877-3.64677-6.9130101-8.637086-6.9130101-5.758057 0-8.734085 4.1279868-8.734085 10.4649987v9.4079701c0 6.335979 2.976028 10.367966 8.734085 10.367966 5.661058 0 7.965312-3.455988 9.404827-7.487976l11.036275 4.799985c-3.358866 9.601001-10.556437 13.920988-20.441102 13.920988-15.163915 0-23.513098-10.273-23.513098-26.4009479zm62.484928-5.4722921v.7679975h17.658041v-.8639972c0-6.1439803-2.78306-10.2719671-8.44515-10.2719671-5.662089 0-9.212891 4.1279868-9.212891 10.3679668zm-14.683045 5.4719824c0-15.9359488 8.44515-26.3049478 23.608033-26.3049478 16.699398 0 23.417131 12.0969934 23.417131 25.7289497v4.2239867h-32.342119v.767997c0 6.625011 3.550802 10.847965 11.132244 10.847965 5.949992 0 9.212891-2.782958 12.379822-6.04798l7.101604 8.833004c-4.510478 5.183983-11.899985 8.351973-21.112876 8.351973-15.450786 0-24.183839-10.272999-24.183839-26.4009476zm68.885039 25.2486416c-9.692729 0-14.10724-4.895984-14.10724-13.823956v-53.1569904h14.203208v55.9409814h6.333862v11.039965zm40.459637-15.26457v-5.951981h-6.909668c-5.470154 0-8.349183 2.015993-8.349183 5.663982v1.439995c0 3.647988 2.399191 5.375983 6.621766 5.375983 4.702413 0 8.637085-1.919994 8.637085-6.527979zm11.036276 15.264983c-5.086283 0-8.733053-3.457021-9.596761-8.833004h-.575806c-1.535482 6.529011-7.101604 9.985-14.779013 9.985-10.0766 0-15.643753-5.951981-15.643753-14.688985 0-10.6559657 8.254247-15.7439494 21.593745-15.7439494h7.965312v-3.1679899c0-4.8959842-2.39919-7.9679744-8.349182-7.9679744-5.66209 0-8.637086 2.8799908-10.844341 5.9519809l-8.446182-7.487976c4.031672-5.9530131 9.789729-9.6010014 20.346167-9.6010014 14.203207 0 21.497778 6.527979 21.497778 18.4329731v22.0799291h4.702413v11.040997zm-247.33352 23.39977v54.048859h-14.587077v-54.048859h-18.13788v-12.959958h50.863869v12.959958zm29.452255 23.328544v.767998h17.658042v-.863997c0-6.143981-2.783061-10.271967-8.44515-10.271967-5.66209 0-9.212892 4.127986-9.212892 10.367966zm-14.683045 5.471983c0-15.935949 8.44515-26.304948 23.608034-26.304948 16.699397 0 23.41713 12.096993 23.41713 25.72895v4.223986h-32.342119v.767998c0 6.625011 3.550802 10.847965 11.132244 10.847965 5.949992 0 9.212891-2.782959 12.379822-6.047981l7.101604 8.833004c-4.510478 5.183984-11.899984 8.351973-21.112876 8.351973-15.450786 0-24.183839-10.272999-24.183839-26.400947zm52.321029.00031c0-16.128981 8.349182-26.304948 23.513098-26.304948 10.172567 0 17.178203 4.895984 20.153199 13.151957l-11.516114 4.993017c-.863708-3.839988-3.646769-6.91301-8.637085-6.91301-5.758057 0-8.734085 4.127986-8.734085 10.464998v9.40797c0 6.33598 2.976028 10.367967 8.734085 10.367967 5.661057 0 7.965312-3.455989 9.404826-7.487976l11.036276 4.799984c-3.358867 9.601002-10.556438 13.920988-20.441102 13.920988-15.163916 0-23.513098-10.272999-23.513098-26.400947zm50.555534-41.631454h14.204239v25.022887h.575806c1.822352-5.279983 6.045959-9.695968 14.011272-9.695968 10.268535 0 15.738689 7.295976 15.738689 19.967936v31.58493h-14.203208v-30.432934c0-6.43198-1.823384-9.599969-7.005636-9.599969-4.606445 0-9.116923 2.399992-9.116923 7.391976v32.640927h-14.204239zm-125.036414 131.307037c8.638117 0 14.012304-4.703985 14.012304-15.359951v-10.368999c0-10.655966-5.374187-15.359951-14.012304-15.359951h-10.652406v41.088901zm-25.239483-54.048859h25.239483c17.755041 0 29.46309 11.231964 29.46309 33.503892 0 22.272961-11.708049 33.504925-29.46309 33.504925h-25.239483zm145.149059 16.607947h13.243531l-18.553739 55.680853c-2.591126 7.775975-8.729958 10.288483-17.368075 10.288483h-8.829021v-11.040997h11.035244l1.277505-1.935477-17.658042-52.992862h14.10724l7.390538 23.520956 3.64677 14.591954h.574774l3.743769-14.591954zm-55.209138 35.136506v-5.951981h-6.909668c-5.470154 0-8.349183 2.015994-8.349183 5.663982v1.439996c0 3.647988 2.39919 5.375982 6.621766 5.375982 4.702413 0 8.637085-1.919994 8.637085-6.527979zm11.036276 15.264983c-5.086284 0-8.733053-3.457021-9.596762-8.833003h-.575805c-1.535482 6.529011-7.101604 9.985-14.779013 9.985-10.0766 0-15.643754-5.951981-15.643754-14.688985 0-10.655966 8.254247-15.74395 21.593746-15.74395h7.965312v-3.16799c0-4.895984-2.39919-7.967974-8.349183-7.967974-5.662089 0-8.637085 2.879991-10.84434 5.951981l-8.446182-7.487976c4.031671-5.953013 9.789728-9.601002 20.346166-9.601002 14.203207 0 21.497778 6.527979 21.497778 18.432974v22.079929h4.702413v11.040996zm-115.264706-110.173361c0 15.35659-11.970438 33.111968-34.474407 33.111968-12.928031 0-16.280125-1.4401-28.728844 5.278989-16.279095 9.116845-15.800813 33.110935-25.376751 51.826035-7.182469 13.916489-23.940876 26.392879-44.050345 26.392879-30.1657506 0-51.2338448-22.073612-51.2338448-48.946869 0-28.313356 25.3777816-49.907623 49.3176263-49.907623 22.5050005 0 33.5168135 11.997045 48.3600325 11.997045 13.407344 0 19.632219-12.956768 19.632219-27.832979 0-23.99409-17.237719-39.82899-37.826501-39.82899-16.758407 0-42.1361883 4.318233-58.4152826 4.318233-42.1351575 0-70.3857204-30.231768-70.3857204-67.6619688 0-38.3899236 31.1233443-66.2229022 66.5553452-66.2229022 28.7288444 0 48.3600328 15.8349008 58.4152828 34.0706568 20.109469 36.9508567 14.363907 77.7406022 41.656876 95.9753252 5.26625 3.359545 10.054219 4.319267 15.3215 4.319267 5.745563 0 11.491126-.959722 18.673595-.959722 16.758406 0 32.559219 14.395833 32.559219 34.070656z"/><mask id="b" fill="#fff"><use fill="#fff" fill-rule="evenodd" xlink:href="#a"/></mask></defs><g fill="none" fill-rule="evenodd" transform="translate(44 45)"><use fill="#1d1d1b" xlink:href="#a"/><path d="m-44-45h624v384h-624z" fill="#131211" mask="url(#b)"/></g></svg>