<svg xmlns="http://www.w3.org/2000/svg" viewBox="0 0 47.94 45.847001" width="47.939999" height="45.847">
  <path d="m 26.284391,1.43925 5.407,10.956 c 0.376,0.762 1.103,1.29 1.944,1.412 l 12.091,1.757 c 2.118,0.308 2.963,2.91 1.431,4.403 l -8.749,8.528 c -0.608,0.593 -0.886,1.448 -0.742,2.285 l 2.065,12.042 c 0.362,2.109 -1.852,3.717 -3.746,2.722 l -10.814,-5.685 c -0.752,-0.395 -1.651,-0.395 -2.403,0 l -10.814,5.685 c -1.894,0.996 -4.1080003,-0.613 -3.7460003,-2.722 l 2.0650003,-12.042 c 0.144,-0.837 -0.134,-1.692 -0.7420003,-2.285 l -8.749,-8.528 c -1.532,-1.494 -0.687,-4.096 1.431,-4.403 l 12.0910003,-1.757 c 0.841,-0.122 1.568,-0.65 1.944,-1.412 l 5.407,-10.956 c 0.946,-1.919 3.682,-1.919 4.629,0 z" />
</svg>
